<?xml version="1.0" standalone="no"?>
<!DOCTYPE svg PUBLIC "-//W3C//DTD SVG 20010904//EN"
 "http://www.w3.org/TR/2001/REC-SVG-20010904/DTD/svg10.dtd">
<svg version="1.0" xmlns="http://www.w3.org/2000/svg"
 width="260.000000pt" height="260.000000pt" viewBox="0 0 260.000000 260.000000"
 preserveAspectRatio="xMidYMid meet">
<metadata>
Created by potrace 1.14, written by Peter Selinger 2001-2017
</metadata>
<g transform="translate(0.000000,260.000000) scale(0.100000,-0.100000)"
fill="#000000" stroke="none">
<path d="M1380 1930 c-96 -3 -176 -7 -178 -8 -11 -8 -42 -71 -42 -85 0 -16 2
-16 30 -2 51 26 111 15 75 -15 -10 -8 -15 -32 -16 -74 0 -33 -4 -70 -8 -80 -8
-21 9 -91 59 -245 32 -101 36 -121 20 -121 -5 0 -7 -13 -4 -29 12 -59 -72
-101 -173 -87 -21 4 -33 3 -26 0 7 -3 10 -11 7 -19 -4 -10 6 -16 31 -21 52 -9
159 22 201 58 25 22 38 27 58 22 25 -6 26 -5 16 21 -5 14 -10 36 -10 49 0 12
-18 77 -40 145 -22 67 -40 129 -40 137 0 12 11 15 50 13 48 -3 51 -1 80 37 16
21 30 41 30 44 0 3 -36 4 -80 2 -76 -4 -79 -3 -85 20 -3 13 -5 53 -3 88 l3 65
128 3 c80 2 135 -2 148 -9 19 -10 20 -9 14 13 -9 27 -54 89 -64 86 -3 -1 -85
-5 -181 -8z"/>
<path d="M1118 1500 c-47 -14 -92 -47 -112 -81 -22 -36 -27 -132 -10 -162 8
-14 10 -6 6 35 -5 60 15 114 46 125 9 4 28 15 41 25 46 35 111 17 111 -30 0
-16 -5 -33 -12 -40 -15 -15 5 -17 32 -2 32 17 43 48 31 79 -19 45 -79 68 -133
51z"/>
<path d="M855 978 c-3 -8 -4 -87 -3 -176 4 -207 22 -224 26 -24 l3 142 29 0
c17 0 30 5 30 10 0 6 -13 10 -30 10 -16 0 -30 5 -30 10 0 10 6 12 42 14 10 1
19 6 20 11 5 16 -81 19 -87 3z"/>
<path d="M980 810 c0 -113 4 -180 10 -180 6 0 10 67 10 180 0 113 -4 180 -10
180 -6 0 -10 -67 -10 -180z"/>
<path d="M1033 978 c2 -7 12 -12 23 -11 44 6 48 -9 26 -98 -63 -253 -63 -243
3 -237 51 4 60 28 11 28 -20 0 -36 2 -36 5 0 2 16 72 35 154 19 82 35 154 35
160 0 7 -20 11 -51 11 -36 0 -49 -4 -46 -12z"/>
<path d="M1163 978 c2 -7 12 -12 23 -11 43 6 44 -7 13 -135 -16 -68 -31 -140
-32 -160 l-2 -37 43 0 c50 0 62 19 15 23 -21 2 -33 9 -33 18 0 8 16 77 35 155
19 78 32 145 29 150 -9 15 -96 11 -91 -3z"/>
<path d="M1290 810 l0 -180 45 0 45 0 0 180 -1 180 -45 0 -44 0 0 -180z m65
135 c0 -5 -10 -11 -22 -13 -16 -2 -23 2 -23 13 0 11 7 15 23 13 12 -2 22 -7
22 -13z m0 -165 c0 -112 -1 -115 -22 -118 -23 -3 -23 -2 -23 118 0 120 0 121
23 118 21 -3 22 -6 22 -118z"/>
<path d="M1412 813 l3 -178 45 0 45 0 3 178 c2 141 0 178 -10 175 -10 -4 -14
-46 -16 -166 -2 -153 -4 -162 -22 -162 -18 0 -20 9 -22 162 -2 120 -6 162 -16
166 -10 3 -12 -34 -10 -175z"/>
<path d="M1543 978 c2 -7 12 -13 23 -14 38 -2 42 -4 38 -21 -2 -10 -17 -78
-34 -152 -17 -73 -29 -140 -26 -148 4 -10 18 -13 46 -11 49 4 58 22 13 26 -18
2 -33 9 -33 15 0 7 11 59 25 117 14 58 30 123 35 144 5 22 7 43 4 48 -9 14
-96 10 -91 -4z"/>
<path d="M1670 981 c0 -5 14 -12 30 -16 17 -4 30 -13 30 -21 0 -8 -13 -72 -30
-141 -16 -69 -30 -136 -30 -150 0 -22 3 -24 42 -21 49 4 66 28 19 28 -39 0
-39 6 -1 162 41 166 41 168 -15 168 -25 0 -45 -4 -45 -9z"/>
</g>
</svg>
